<svg
          width="25"
          height="17"
          viewBox="0 0 25 17"
          fill="none"
          xmlns="http://www.w3.org/2000/svg"
          id="menu-icon"
          class="hidden-desktop"
        >
          <path
            d="M1.38889 17C0.995375 17 0.665282 16.864 0.398616 16.592C0.131949 16.32 -0.00092112 15.9838 4.80585e-06 15.5833C4.80585e-06 15.1819 0.133338 14.8452 0.400005 14.5732C0.666671 14.3012 0.996301 14.1657 1.38889 14.1667H23.6111C24.0046 14.1667 24.3347 14.3027 24.6014 14.5747C24.868 14.8467 25.0009 15.1829 25 15.5833C25 15.9847 24.8667 16.3214 24.6 16.5934C24.3333 16.8654 24.0037 17.0009 23.6111 17H1.38889ZM1.38889 9.91667C0.995375 9.91667 0.665282 9.78067 0.398616 9.50867C0.131949 9.23667 -0.00092112 8.90044 4.80585e-06 8.5C4.80585e-06 8.09861 0.133338 7.76192 0.400005 7.48992C0.666671 7.21792 0.996301 7.08239 1.38889 7.08333H23.6111C24.0046 7.08333 24.3347 7.21933 24.6014 7.49133C24.868 7.76333 25.0009 8.09956 25 8.5C25 8.90139 24.8667 9.23808 24.6 9.51008C24.3333 9.78208 24.0037 9.91761 23.6111 9.91667H1.38889ZM1.38889 2.83334C0.995375 2.83334 0.665282 2.69734 0.398616 2.42534C0.131949 2.15334 -0.00092112 1.81712 4.80585e-06 1.41667C4.80585e-06 1.01528 0.133338 0.678588 0.400005 0.406588C0.666671 0.134588 0.996301 -0.000939542 1.38889 4.90195e-06H23.6111C24.0046 4.90195e-06 24.3347 0.136005 24.6014 0.408005C24.868 0.680005 25.0009 1.01623 25 1.41667C25 1.81806 24.8667 2.15475 24.6 2.42675C24.3333 2.69875 24.0037 2.83428 23.6111 2.83334H1.38889Z"
            fill="var(--text-primary)"
          />
        </svg>