<svg width="1245" height="4297" viewBox="0 0 1245 4297" fill="none" xmlns="http://www.w3.org/2000/svg">
<path d="M1 44.9811C1 44.9811 1211 -102.022 1211 141.481C1211 400.981 476.5 145.481 476.5 378.981C476.5 669.791 1233.57 304.481 1238.37 683.45C1242.98 1048.35 585.174 786.046 585.174 966.978C585.174 1128.2 970.288 1008.93 866.757 1135.78C743.146 1287.24 1200.36 1245.48 1200.36 1448.67C1200.36 1715.7 67.5 1408.48 67.5 1748.48C67.5 2135.53 1019.91 1705.15 1001 2039.48C987 2286.98 449.2 2038.72 419.5 2359.48C382 2764.48 946 2583.48 946 2884.48C946 3245.08 335.5 2960.98 335.5 3317.9C335.5 3709.56 1128.5 3228.7 896 3779.71C800.765 4005.4 1185.09 3835.62 1238.5 4064.98C1325 4436.48 269.5 4246.9 269.5 4246.9" stroke="#000E0E" stroke-width="1.5"/>
</svg>
