<svg width="1245" height="4297" viewBox="0 0 1245 4297" fill="none" xmlns="http://www.w3.org/2000/svg">
<g style="mix-blend-mode:plus-lighter">
<path d="M1 45.5C1 45.5 1211 -101.503 1211 142C1211 401.5 476.5 146 476.5 379.5C476.5 670.31 1233.57 305 1238.37 683.969C1242.98 1048.87 585.174 786.565 585.174 967.497C585.174 1128.72 970.288 1009.45 866.757 1136.3C743.146 1287.76 1200.36 1246 1200.36 1449.19C1200.36 1716.22 67.5 1409 67.5 1749C67.5 2136.04 1019.91 1705.67 1001 2040C987 2287.5 449.2 2039.24 419.5 2360C382 2765 946 2584 946 2885C946 3245.6 335.5 2961.5 335.5 3318.42C335.5 3710.08 1128.5 3229.22 896 3780.23C800.765 4005.92 1185.09 3836.14 1238.5 4065.5C1325 4437 269.5 4247.42 269.5 4247.42" stroke="url(#paint0_linear_70_132)" stroke-opacity="0.5" stroke-width="1.5"/>
</g>
<defs>
<linearGradient id="paint0_linear_70_132" x1="632.688" y1="-112.031" x2="632.688" y2="4640.71" gradientUnits="userSpaceOnUse">
<stop stop-color="#004564"/>
<stop offset="0.265" stop-color="#2884A2"/>
<stop offset="0.74" stop-color="#00D1C7"/>
<stop offset="1" stop-color="#60F1D0"/>
</linearGradient>
</defs>
</svg>
